<svg xmlns="http://www.w3.org/2000/svg" xmlns:xlink="http://www.w3.org/1999/xlink" width="1000" zoomAndPan="magnify" viewBox="0 0 750 749.999995" height="1000" preserveAspectRatio="xMidYMid meet" version="1.0"><defs><clipPath id="6bc1a2796e"><path d="M 35.25 0 L 714.75 0 C 734.21875 0 750 15.78125 750 35.25 L 750 714.75 C 750 734.21875 734.21875 750 714.75 750 L 35.25 750 C 15.78125 750 0 734.21875 0 714.75 L 0 35.25 C 0 15.78125 15.78125 0 35.25 0 Z M 35.25 0 " clip-rule="nonzero"/></clipPath><clipPath id="86df4f0772"><path d="M 0 0 L 750 0 L 750 750 L 0 750 Z M 0 0 " clip-rule="nonzero"/></clipPath><clipPath id="2a07bb5aec"><path d="M 35.25 0 L 714.75 0 C 734.21875 0 750 15.78125 750 35.25 L 750 714.75 C 750 734.21875 734.21875 750 714.75 750 L 35.25 750 C 15.78125 750 0 734.21875 0 714.75 L 0 35.25 C 0 15.78125 15.78125 0 35.25 0 Z M 35.25 0 " clip-rule="nonzero"/></clipPath><clipPath id="7c6c373e1e"><rect x="0" width="750" y="0" height="750"/></clipPath></defs><g clip-path="url(#6bc1a2796e)"><g transform="matrix(1, 0, 0, 1, 0, -0.000000000000042435)"><g clip-path="url(#7c6c373e1e)"><g clip-path="url(#86df4f0772)"><g clip-path="url(#2a07bb5aec)"><rect x="-165" width="1080" fill="#343434" height="1079.999992" y="-164.999999" fill-opacity="1"/></g></g></g></g></g><path fill="#ffffff" d="M 631.496094 387.765625 L 607.894531 387.765625 L 607.894531 629.75 C 607.847656 630.5625 607.753906 631.375 607.625 632.179688 C 607.496094 632.984375 607.328125 633.78125 607.121094 634.570312 C 606.914062 635.359375 606.667969 636.132812 606.386719 636.898438 C 606.101562 637.664062 605.785156 638.414062 605.425781 639.148438 C 605.070312 639.878906 604.679688 640.59375 604.253906 641.289062 C 603.828125 641.984375 603.371094 642.660156 602.878906 643.308594 C 602.386719 643.960938 601.867188 644.585938 601.3125 645.183594 C 600.761719 645.785156 600.179688 646.355469 599.574219 646.898438 C 598.964844 647.445312 598.332031 647.957031 597.675781 648.4375 C 597.015625 648.917969 596.335938 649.367188 595.632812 649.78125 C 594.933594 650.199219 594.210938 650.578125 593.472656 650.921875 C 592.734375 651.269531 591.980469 651.574219 591.210938 651.847656 C 590.441406 652.117188 589.664062 652.351562 588.871094 652.546875 C 588.078125 652.742188 587.28125 652.898438 586.472656 653.015625 C 585.664062 653.132812 584.855469 653.210938 584.039062 653.25 C 583.226562 653.289062 582.410156 653.289062 581.597656 653.246094 L 442.191406 653.246094 L 442.191406 488.25 C 442.191406 487.6875 442.160156 487.121094 442.105469 486.5625 C 442.050781 486 441.96875 485.441406 441.859375 484.886719 C 441.75 484.335938 441.613281 483.789062 441.449219 483.246094 C 441.285156 482.707031 441.09375 482.175781 440.878906 481.65625 C 440.664062 481.132812 440.421875 480.625 440.15625 480.125 C 439.890625 479.628906 439.601562 479.144531 439.285156 478.675781 C 438.972656 478.207031 438.636719 477.753906 438.277344 477.316406 C 437.921875 476.878906 437.542969 476.460938 437.144531 476.0625 C 436.746094 475.664062 436.328125 475.285156 435.890625 474.925781 C 435.453125 474.570312 435 474.234375 434.53125 473.917969 C 434.0625 473.605469 433.578125 473.316406 433.082031 473.050781 C 432.585938 472.78125 432.074219 472.542969 431.554688 472.324219 C 431.03125 472.109375 430.5 471.917969 429.960938 471.753906 C 429.421875 471.589844 428.875 471.453125 428.320312 471.34375 C 427.769531 471.234375 427.210938 471.148438 426.648438 471.09375 C 426.085938 471.039062 425.523438 471.011719 424.960938 471.011719 L 323.8125 471.011719 C 323.25 471.011719 322.6875 471.039062 322.125 471.09375 C 321.5625 471.148438 321.003906 471.230469 320.453125 471.339844 C 319.898438 471.453125 319.351562 471.589844 318.8125 471.753906 C 318.269531 471.917969 317.738281 472.105469 317.21875 472.324219 C 316.695312 472.539062 316.1875 472.78125 315.6875 473.046875 C 315.191406 473.3125 314.707031 473.601562 314.238281 473.914062 C 313.769531 474.230469 313.316406 474.566406 312.878906 474.921875 C 312.445312 475.28125 312.027344 475.660156 311.628906 476.058594 C 311.226562 476.460938 310.847656 476.878906 310.492188 477.3125 C 310.132812 477.75 309.796875 478.203125 309.484375 478.671875 C 309.171875 479.140625 308.882812 479.625 308.617188 480.125 C 308.347656 480.621094 308.109375 481.132812 307.894531 481.652344 C 307.675781 482.175781 307.488281 482.707031 307.324219 483.246094 C 307.160156 483.785156 307.023438 484.332031 306.914062 484.886719 C 306.804688 485.441406 306.722656 486 306.667969 486.5625 C 306.609375 487.121094 306.582031 487.6875 306.585938 488.25 L 306.585938 653.234375 L 167.164062 653.234375 C 166.355469 653.277344 165.542969 653.28125 164.730469 653.246094 C 163.917969 653.210938 163.109375 653.132812 162.304688 653.019531 C 161.5 652.902344 160.703125 652.75 159.914062 652.554688 C 159.125 652.363281 158.347656 652.128906 157.582031 651.859375 C 156.8125 651.589844 156.0625 651.285156 155.324219 650.941406 C 154.589844 650.597656 153.871094 650.21875 153.167969 649.808594 C 152.46875 649.394531 151.792969 648.945312 151.136719 648.46875 C 150.480469 647.988281 149.847656 647.476562 149.242188 646.933594 C 148.636719 646.394531 148.058594 645.824219 147.507812 645.226562 C 146.957031 644.628906 146.4375 644.003906 145.949219 643.355469 C 145.460938 642.707031 145.003906 642.035156 144.578125 641.339844 C 144.15625 640.648438 143.765625 639.933594 143.414062 639.203125 C 143.058594 638.472656 142.742188 637.722656 142.460938 636.960938 C 142.179688 636.199219 141.9375 635.425781 141.730469 634.636719 C 141.527344 633.851562 141.359375 633.058594 141.234375 632.253906 C 141.105469 631.453125 141.019531 630.644531 140.96875 629.832031 L 140.96875 387.765625 L 117.269531 387.765625 C 91 387.765625 76.769531 363.03125 93.980469 347.164062 L 353.359375 107.371094 C 354.167969 106.6875 355.007812 106.039062 355.875 105.425781 C 356.742188 104.816406 357.632812 104.242188 358.550781 103.710938 C 359.46875 103.175781 360.40625 102.683594 361.367188 102.234375 C 362.328125 101.785156 363.304688 101.378906 364.304688 101.011719 C 365.300781 100.648438 366.308594 100.328125 367.335938 100.054688 C 368.359375 99.78125 369.394531 99.550781 370.4375 99.367188 C 371.484375 99.183594 372.535156 99.042969 373.59375 98.953125 C 374.648438 98.863281 375.707031 98.816406 376.769531 98.820312 C 377.828125 98.820312 378.886719 98.871094 379.945312 98.964844 C 381 99.0625 382.050781 99.203125 383.097656 99.390625 C 384.140625 99.578125 385.175781 99.8125 386.199219 100.089844 C 387.222656 100.371094 388.230469 100.695312 389.226562 101.0625 C 390.222656 101.429688 391.199219 101.839844 392.15625 102.296875 C 393.117188 102.75 394.050781 103.246094 394.96875 103.78125 C 395.882812 104.316406 396.773438 104.894531 397.636719 105.507812 C 398.5 106.125 399.335938 106.777344 400.144531 107.464844 C 485.058594 187.390625 570.011719 267.316406 655 347.246094 C 671.890625 363.269531 657.671875 387.765625 631.496094 387.765625 Z M 631.496094 387.765625 " fill-opacity="1" fill-rule="nonzero"/></svg>