<svg version="1.2" xmlns="http://www.w3.org/2000/svg" viewBox="0 0 1000 1001" width="1000" height="1001">
	<defs>
		<clipPath clipPathUnits="userSpaceOnUse" id="cp1">
			<path d="m47 1.33h906c25.96 0 47 21.04 47 47v906c0 25.96-21.04 47-47 47h-906c-25.96 0-47-21.04-47-47v-906c0-25.96 21.04-47 47-47z"/>
		</clipPath>
		<clipPath clipPathUnits="userSpaceOnUse" id="cp2">
			<path d="m0 1.33h1000v1000h-1000z"/>
		</clipPath>
		<clipPath clipPathUnits="userSpaceOnUse" id="cp3">
			<path d="m0 1.33h1000v1000h-1000z"/>
		</clipPath>
		<clipPath clipPathUnits="userSpaceOnUse" id="cp4">
			<path d="m47 1.33h906c25.96 0 47 21.04 47 47v906c0 25.96-21.04 47-47 47h-906c-25.96 0-47-21.04-47-47v-906c0-25.96 21.04-47 47-47z"/>
		</clipPath>
	</defs>
	<style>
		.s0 { fill: #ffffff } 
	</style>
	<g id="Clip-Path" clip-path="url(#cp1)">
		<g>
			<g>
				<g id="Clip-Path" clip-path="url(#cp2)">
					<g>
						<g id="Clip-Path" clip-path="url(#cp3)">
							<g>
								<g id="Clip-Path" clip-path="url(#cp4)">
									<g>
									</g>
								</g>
							</g>
						</g>
					</g>
				</g>
			</g>
		</g>
	</g>
	<path class="s0" d="m841.99 518.35h-31.46v322.65q-0.1 1.63-0.36 3.24-0.26 1.61-0.68 3.19-0.41 1.57-0.97 3.1-0.57 1.53-1.29 3-0.71 1.46-1.56 2.86-0.85 1.39-1.83 2.69-0.98 1.3-2.09 2.5-1.1 1.2-2.32 2.28-1.22 1.1-2.53 2.06-1.32 0.96-2.72 1.79-1.4 0.83-2.88 1.52-1.48 0.69-3.02 1.23-1.54 0.54-3.12 0.94-1.58 0.39-3.2 0.62-1.61 0.24-3.24 0.31-1.63 0.08-3.26 0h-185.87v-220q0-1.13-0.12-2.25-0.11-1.12-0.32-2.23-0.22-1.1-0.55-2.19-0.33-1.08-0.76-2.12-0.43-1.04-0.97-2.04-0.52-0.99-1.16-1.93-0.62-0.94-1.34-1.81-0.71-0.88-1.51-1.68-0.8-0.79-1.67-1.51-0.88-0.71-1.82-1.35-0.93-0.62-1.93-1.15-0.99-0.54-2.03-0.97-1.05-0.43-2.13-0.76-1.08-0.33-2.19-0.55-1.1-0.22-2.23-0.33-1.12-0.11-2.25-0.11h-134.86q-1.12 0-2.25 0.11-1.13 0.11-2.23 0.33-1.11 0.22-2.19 0.55-1.08 0.32-2.12 0.76-1.05 0.43-2.04 0.96-1 0.53-1.94 1.16-0.93 0.63-1.81 1.34-0.87 0.72-1.66 1.52-0.81 0.8-1.52 1.67-0.72 0.88-1.34 1.81-0.63 0.94-1.16 1.94-0.54 0.99-0.96 2.04-0.44 1.04-0.76 2.12-0.33 1.08-0.55 2.19-0.22 1.11-0.33 2.23-0.12 1.12-0.11 2.25v219.98h-185.89q-1.62 0.09-3.25 0.02-1.62-0.07-3.23-0.3-1.61-0.24-3.19-0.62-1.58-0.39-3.11-0.93-1.54-0.54-3.01-1.22-1.47-0.69-2.88-1.52-1.39-0.83-2.7-1.78-1.32-0.96-2.53-2.05-1.21-1.08-2.31-2.27-1.1-1.2-2.08-2.5-0.98-1.3-1.83-2.69-0.85-1.38-1.55-2.85-0.71-1.46-1.27-2.99-0.56-1.52-0.98-3.09-0.4-1.57-0.66-3.18-0.25-1.6-0.35-3.23v-322.76h-31.6c-35.03 0-54-32.98-31.05-54.13l345.84-319.73q1.61-1.36 3.35-2.59 1.73-1.22 3.57-2.29 1.83-1.07 3.75-1.96 1.92-0.9 3.92-1.63 1.99-0.73 4.04-1.28 2.05-0.55 4.14-0.92 2.09-0.37 4.2-0.55 2.11-0.18 4.24-0.18 2.12 0.01 4.23 0.2 2.11 0.19 4.21 0.56 2.08 0.38 4.13 0.94 2.05 0.56 4.04 1.29 1.99 0.74 3.9 1.65 1.92 0.91 3.75 1.98 1.83 1.07 3.56 2.3 1.73 1.23 3.35 2.61 169.83 159.85 339.8 319.71c22.52 21.36 3.57 54.02-31.34 54.02z"/>
</svg>