<svg xmlns="http://www.w3.org/2000/svg" xmlns:xlink="http://www.w3.org/1999/xlink" width="1000" zoomAndPan="magnify" viewBox="0 0 750 749.999995" height="1000" preserveAspectRatio="xMidYMid meet" version="1.0"><defs><clipPath id="95443a6a80"><path d="M 75 289 L 675 289 L 675 623.25 L 75 623.25 Z M 75 289 " clip-rule="nonzero"/></clipPath><clipPath id="42d1cf2011"><path d="M 257 126.75 L 499 126.75 L 499 481 L 257 481 Z M 257 126.75 " clip-rule="nonzero"/></clipPath></defs><g clip-path="url(#95443a6a80)"><path fill="#64adda" d="M 75.109375 440.539062 L 204.203125 323.367188 L 331.304688 363.359375 L 450.464844 289.816406 L 674.886719 490.191406 L 553.738281 575.589844 L 419.378906 541.828125 L 299.53125 623.253906 Z M 75.109375 440.539062 " fill-opacity="1" fill-rule="evenodd"/></g><path fill="#81a852" d="M 96.871094 442.902344 L 210.898438 338.554688 L 343.910156 374.394531 L 452.261719 305.605469 L 653.367188 487.921875 L 548.242188 562.121094 L 415.148438 525.617188 L 302.851562 601.253906 Z M 96.871094 442.902344 " fill-opacity="1" fill-rule="evenodd"/><path fill="#f4d825" d="M 221.914062 517.96875 L 275.621094 409.578125 C 298.210938 417.414062 446 468.691406 446 468.691406 L 449.046875 469.746094 L 498.550781 354.003906 L 492.1875 351.28125 C 492.1875 351.28125 452.839844 443.285156 445.222656 461.09375 C 445.222656 461.09375 272.128906 401.042969 272.128906 401.042969 L 215.714844 514.894531 Z M 221.914062 517.96875 " fill-opacity="1" fill-rule="evenodd"/><path fill="#f4d825" d="M 468.601562 418.566406 L 590.972656 448.035156 L 592.59375 441.308594 L 470.21875 411.835938 Z M 468.601562 418.566406 " fill-opacity="1" fill-rule="evenodd"/><path fill="#f4f8f0" d="M 96.871094 442.902344 L 210.898438 338.554688 L 343.910156 374.394531 L 452.261719 305.605469 L 653.367188 487.921875 L 548.242188 562.121094 L 413.003906 525.664062 L 302.851562 601.253906 Z M 119.613281 442.261719 L 214.730469 355.21875 C 214.730469 355.21875 346.003906 390.535156 346.003906 390.535156 L 450.300781 324.214844 C 450.300781 324.214844 628.605469 485.007812 628.605469 485.007812 C 628.605469 485.007812 566.277344 534.574219 545.941406 546.277344 L 410.027344 509.660156 L 303.625 582.675781 C 303.625 582.675781 119.613281 442.261719 119.613281 442.261719 Z M 119.613281 442.261719 " fill-opacity="1" fill-rule="evenodd"/><path fill="#f4f8f0" d="M 339.113281 386.398438 L 545.5625 555.816406 L 555.15625 544.445312 L 348.710938 375.027344 Z M 339.113281 386.398438 " fill-opacity="1" fill-rule="evenodd"/><path fill="#f4f8f0" d="M 424.960938 514.429688 L 219.328125 344.953125 L 209.519531 356.140625 L 415.148438 525.617188 Z M 424.960938 514.429688 " fill-opacity="1" fill-rule="evenodd"/><g clip-path="url(#42d1cf2011)"><path fill="#de4f41" d="M 257.808594 247.121094 C 257.808594 180.6875 311.746094 126.75 378.179688 126.75 C 444.613281 126.75 498.550781 180.6875 498.550781 247.121094 C 498.550781 275.078125 489 300.820312 472.984375 321.265625 C 454.785156 364.585938 430.019531 414.46875 404.007812 465.597656 C 399.179688 475.117188 389.351562 481.0625 378.679688 480.914062 C 378.511719 480.914062 378.347656 480.910156 378.179688 480.902344 L 378.054688 480.90625 C 377.929688 480.910156 377.804688 480.914062 377.679688 480.914062 C 367.007812 481.0625 357.179688 475.117188 352.351562 465.597656 C 326.339844 414.46875 301.574219 364.585938 283.375 321.265625 C 267.359375 300.820312 257.808594 275.078125 257.808594 247.121094 Z M 378.179688 185.957031 C 411.9375 185.957031 439.34375 213.363281 439.34375 247.121094 C 439.34375 280.878906 411.9375 308.289062 378.179688 308.289062 C 344.421875 308.289062 317.011719 280.878906 317.011719 247.121094 C 317.011719 213.363281 344.421875 185.957031 378.179688 185.957031 Z M 378.179688 185.957031 " fill-opacity="1" fill-rule="evenodd"/></g></svg>