<svg xmlns="http://www.w3.org/2000/svg" xmlns:xlink="http://www.w3.org/1999/xlink" width="1000" zoomAndPan="magnify" viewBox="0 0 750 749.999995" height="1000" preserveAspectRatio="xMidYMid meet" version="1.0"><defs><clipPath id="13e7a3ba0f"><path d="M 35.25 0 L 714.75 0 C 734.21875 0 750 15.78125 750 35.25 L 750 714.75 C 750 734.21875 734.21875 750 714.75 750 L 35.25 750 C 15.78125 750 0 734.21875 0 714.75 L 0 35.25 C 0 15.78125 15.78125 0 35.25 0 Z M 35.25 0 " clip-rule="nonzero"/></clipPath><clipPath id="f8b19a0c1d"><path d="M 0 0 L 750 0 L 750 750 L 0 750 Z M 0 0 " clip-rule="nonzero"/></clipPath><clipPath id="a3913b65d6"><path d="M 35.25 0 L 714.75 0 C 734.21875 0 750 15.78125 750 35.25 L 750 714.75 C 750 734.21875 734.21875 750 714.75 750 L 35.25 750 C 15.78125 750 0 734.21875 0 714.75 L 0 35.25 C 0 15.78125 15.78125 0 35.25 0 Z M 35.25 0 " clip-rule="nonzero"/></clipPath><clipPath id="269f82be14"><rect x="0" width="750" y="0" height="750"/></clipPath><clipPath id="fdb8a86d57"><path d="M 80 100.636719 L 667 100.636719 L 667 649.636719 L 80 649.636719 Z M 80 100.636719 " clip-rule="nonzero"/></clipPath></defs><g clip-path="url(#13e7a3ba0f)"><g transform="matrix(1, 0, 0, 1, 0, -0.000000000000042435)"><g clip-path="url(#269f82be14)"><g clip-path="url(#f8b19a0c1d)"><g clip-path="url(#a3913b65d6)"><rect x="-165" width="1080" fill="#1460aa" height="1079.999992" y="-164.999999" fill-opacity="1"/></g></g></g></g></g><g clip-path="url(#fdb8a86d57)"><path fill="#ffffff" d="M 644.785156 600.855469 L 597.894531 600.855469 L 597.894531 503.84375 L 597.84375 503.84375 L 597.84375 380.8125 C 605.207031 380.132812 612.273438 378.445312 618.90625 375.875 C 657.277344 361.007812 675.019531 316.640625 658.625 278.894531 L 597.484375 138.140625 C 587.652344 115.5 565.320312 100.855469 540.636719 100.855469 L 209.042969 100.855469 C 184.359375 100.855469 162.03125 115.496094 152.195312 138.132812 L 91.023438 278.925781 C 74.996094 315.8125 91.5 359.304688 128.539062 374.976562 C 135.789062 378.042969 143.597656 380.039062 151.761719 380.792969 L 151.761719 600.855469 L 102.332031 600.855469 C 90.273438 600.855469 80.5 611.652344 80.5 624.96875 C 80.5 638.285156 90.273438 649.082031 102.332031 649.082031 L 644.785156 649.082031 C 656.84375 649.082031 666.621094 638.285156 666.621094 624.96875 C 666.621094 611.652344 656.84375 600.855469 644.785156 600.855469 Z M 231.019531 333.988281 C 243.105469 361.738281 270.757812 381.148438 302.960938 381.148438 C 335.128906 381.148438 362.761719 361.773438 374.863281 334.0625 C 386.964844 361.773438 414.597656 381.148438 446.765625 381.148438 C 478.9375 381.148438 506.570312 361.773438 518.671875 334.0625 C 525.757812 350.292969 538.183594 363.65625 553.71875 371.949219 L 553.71875 481.78125 C 553.71875 493.964844 543.84375 503.84375 531.660156 503.84375 L 217.949219 503.84375 C 205.761719 503.84375 195.886719 493.964844 195.886719 481.78125 L 195.886719 371.980469 C 211.472656 363.675781 223.929688 350.269531 231.019531 333.988281 Z M 231.019531 333.988281 " fill-opacity="1" fill-rule="nonzero"/></g></svg>