<svg version="1.2" xmlns="http://www.w3.org/2000/svg" viewBox="0 0 1000 1001" width="1000" height="1001">
	<defs>
		<clipPath clipPathUnits="userSpaceOnUse" id="cp1">
			<path d="m47 1.33h906c25.96 0 47 21.04 47 47v906c0 25.96-21.04 47-47 47h-906c-25.96 0-47-21.04-47-47v-906c0-25.96 21.04-47 47-47z"/>
		</clipPath>
		<clipPath clipPathUnits="userSpaceOnUse" id="cp2">
			<path d="m0 1.33h1000v1000h-1000z"/>
		</clipPath>
		<clipPath clipPathUnits="userSpaceOnUse" id="cp3">
			<path d="m0 1.33h1000v1000h-1000z"/>
		</clipPath>
		<clipPath clipPathUnits="userSpaceOnUse" id="cp4">
			<path d="m47 1.33h906c25.96 0 47 21.04 47 47v906c0 25.96-21.04 47-47 47h-906c-25.96 0-47-21.04-47-47v-906c0-25.96 21.04-47 47-47z"/>
		</clipPath>
		<clipPath clipPathUnits="userSpaceOnUse" id="cp5">
			<path d="m417.33 626.67h72v86.03h-72z"/>
		</clipPath>
	</defs>
	<style>
		.s0 { fill: #ffffff } 
	</style>
	<g id="Clip-Path" clip-path="url(#cp1)">
		<g>
			<g>
				<g id="Clip-Path" clip-path="url(#cp2)">
					<g>
						<g id="Clip-Path" clip-path="url(#cp3)">
							<g>
								<g id="Clip-Path" clip-path="url(#cp4)">
									<g>
									</g>
								</g>
							</g>
						</g>
					</g>
				</g>
			</g>
		</g>
	</g>
	<path class="s0" d="m584.06 670.25l-87.66-55.35c-0.19-0.15-0.35-0.34-0.55-0.49-9.33-7.27-20.59-10.76-32.24-9.35-0.69 0.08-1.33 0.24-2 0.35-0.92-12.23-6.48-24.07-16.43-32.18-9.15-7.48-20.6-10.79-32.24-9.35-0.41 0.06-0.79 0.16-1.2 0.22-0.52-12.79-6.18-25.3-16.55-33.77-9.16-7.49-20.59-10.79-32.24-9.34-11.79 1.48-22.26 7.63-29.43 17.35l-4.6 6.25c-1.14 1.56-3.52 1.34-4.4-0.39-2.74-5.3-6.54-10.11-11.36-14.03-9.16-7.49-20.63-10.81-32.24-9.36-11.79 1.49-22.24 7.65-29.44 17.37l-15.08 20.38-3.66 0.51c-9.61-7.35-19.5-14.8-31.03-19.87-1.86-0.8-2.86-2.84-2.37-4.79l46.61-191.16c0.26-1.08 0.94-2 1.89-2.58 0.95-0.58 2.08-0.74 3.16-0.49 19.82 4.86 43.65 7.6 68.5 7.6 35.65 0 73.35-5.63 104.1-18.77 31.66-13.54 49.35-20.28 67.22-21.24 2.76-0.15 3.86 3.46 1.47 4.85-27.89 16.1-58.47 39.15-69.68 63.56q-0.07 0.16-0.16 0.34 0 0.05-0.05 0.08-0.06 0.16-0.12 0.36c-0.09 0.19-0.17 0.35-0.23 0.57l-27.31 78.24c-2.56 7.35-2.06 15.56 1.42 22.51 3.39 6.84 9.19 11.87 16.36 14.16 15.88 5.08 46.37 8.79 71.93-23.74q0.15-0.21 0.31-0.42c11.09-15.45 19.13-28.82 23.93-36.81 0.66-1.11 1.29-2.16 1.86-3.07 0.43-0.72 1.17-1.17 2-1.25l28.98-2.45c0.99-0.08 1.97 0.2 2.86 0.84l164.14 117.19 7 5c26.71 19.89-6.14 57.49-33 37.17-2.21-1.56-11.63-8.09-14.01-9.78-38.02-26.45-95.71-66.74-96.52-67.29-5.22-3.58-12.34-2.36-15.95 2.84-3.63 5.19-2.4 12.42 2.84 15.95 0.77 0.52 56.26 39.29 94.3 65.76q3.6 2.53 6.99 4.87c19.26 14.53-5.96 48.52-29.1 32.79l-6.95-4.89-90.63-63.75c-5.18-3.65-12.31-2.38-15.95 2.78-3.65 5.16-2.4 12.33 2.77 15.96l88.52 62.29c19.06 13.54-3.13 41.56-24.71 27.8z"/>
	<path class="s0" d="m543.61 694.18c2.92-4.01 4.05-8.85 3.18-13.66-0.9-4.93-3.77-9.21-8.13-12.06l-28.79-18.94c0.1 9.36-2.68 18.78-8.53 26.71l-6.66 9.02 23.67 15.56c8.78 3.7 19.67 1.05 25.28-6.63z"/>
	<path class="s0" d="m845.23 293.45l53.92 223.73c0.47 1.94-0.72 3.89-2.67 4.36l-56.72 13.67c-7 1.68-14.05-2.63-15.73-9.62l-49.5-205.39c-1.69-7 2.62-14.04 9.62-15.73l56.72-13.67c1.95-0.47 3.9 0.73 4.36 2.67z"/>
	<path class="s0" d="m298.19 547.78c-3.61-2.95-7.95-4.5-12.47-4.5q-1.2 0-2.44 0.16c-5.5 0.7-10.43 3.62-13.86 8.24l-27.14 36.72c-7.2 9.72-5.5 24.3 3.7 31.83 4.26 3.49 9.55 5.04 14.91 4.36 5.5-0.69 10.42-3.62 13.85-8.25l27.15-36.7c7.19-9.73 5.5-24.31-3.71-31.84z"/>
	<path class="s0" d="m637.89 321.25c-34.21-7.11-66.5-13.84-92.04-8.63-16.09 3.29-87.74 39.98-102.88 72.94l-27.1 77.64c-0.74 2.13-0.15 3.89 0.29 4.74 0.37 0.73 1.23 2.03 2.86 2.57 18.09 5.8 33.82 0.46 46.77-15.91 10.49-14.63 18.16-27.4 22.76-35.04 1.85-3.1 3.21-5.34 4.21-6.83 3.19-4.74 8.26-7.74 13.89-8.21l32.43-2.75c6.42-0.55 12.87 1.24 18.14 5.04l171.54 122.49q0.34 0.24 0.68 0.51c4.9 4.09 8.71 8.42 11.69 12.65 1.48 2.1 3.85 3.4 6.42 3.51 19.35 0.91 30.47-4.5 47.35-12.72q2.01-0.97 4.16-2.02c1.78-0.85 2.7-2.82 2.23-4.74l-47.35-194.22c-0.55-2.23-2.79-3.6-5.04-3.07-33.69 8.16-72.9 0.02-111.01-7.92z"/>
	<path class="s0" d="m435.55 620.04c5.17-9.58 3.06-22.32-5.36-29.2-3.61-2.94-7.95-4.5-12.45-4.5q-1.21 0-2.45 0.17c-5.5 0.69-10.42 3.61-13.85 8.24l-43.22 58.43c-7.19 9.73-5.5 24.31 3.72 31.84 4.25 3.49 9.54 5.02 14.9 4.36 5.5-0.7 10.42-3.61 13.85-8.24l10.39-14.04c0.92-1.63 1.89-3.2 3.02-4.74l29.61-40.05c0.58-0.79 1.23-1.51 1.85-2.25z"/>
	<path class="s0" d="m380.22 547.96c-3.61-2.95-7.94-4.5-12.46-4.5q-1.21-0.01-2.45 0.16c-5.5 0.69-10.42 3.61-13.86 8.24l-57.71 78.05c-7.19 9.73-5.5 24.31 3.71 31.84 4.26 3.48 9.55 5.03 14.9 4.35 5.5-0.69 10.43-3.61 13.86-8.24l57.71-78.05c7.19-9.72 5.5-24.3-3.71-31.84z"/>
	<g id="Clip-Path" clip-path="url(#cp5)">
		<g>
			<path class="s0" d="m480.89 632.02c-3.61-2.95-7.95-4.5-12.47-4.5q-1.21 0-2.45 0.15c-4.53 0.56-8.65 2.67-11.87 5.97-0.57 0.9-1.13 1.79-1.78 2.66l-31.9 43.14c-4.61 9.47-2.37 21.68 5.79 28.36 4.26 3.48 9.55 5.01 14.9 4.35 5.5-0.69 10.42-3.61 13.84-8.24l29.61-40.05c7.2-9.72 5.5-24.3-3.71-31.84z"/>
		</g>
	</g>
	<path class="s0" d="m225.52 327.24l-49.5 205.4c-1.69 6.99-8.73 11.3-15.73 9.62l-56.73-13.68c-1.94-0.47-3.13-2.41-2.66-4.36l53.91-223.72c0.47-1.94 2.42-3.14 4.36-2.67l56.73 13.68c7 1.68 11.3 8.72 9.62 15.72z"/>
</svg>