<svg xmlns="http://www.w3.org/2000/svg" xmlns:xlink="http://www.w3.org/1999/xlink" width="1000" zoomAndPan="magnify" viewBox="0 0 750 749.999995" height="1000" preserveAspectRatio="xMidYMid meet" version="1.0"><defs><clipPath id="454685e838"><path d="M 35.25 0 L 714.75 0 C 734.21875 0 750 15.78125 750 35.25 L 750 714.75 C 750 734.21875 734.21875 750 714.75 750 L 35.25 750 C 15.78125 750 0 734.21875 0 714.75 L 0 35.25 C 0 15.78125 15.78125 0 35.25 0 Z M 35.25 0 " clip-rule="nonzero"/></clipPath><clipPath id="7583074d38"><path d="M 0 0 L 750 0 L 750 750 L 0 750 Z M 0 0 " clip-rule="nonzero"/></clipPath><clipPath id="3221b13220"><path d="M 35.25 0 L 714.75 0 C 734.21875 0 750 15.78125 750 35.25 L 750 714.75 C 750 734.21875 734.21875 750 714.75 750 L 35.25 750 C 15.78125 750 0 734.21875 0 714.75 L 0 35.25 C 0 15.78125 15.78125 0 35.25 0 Z M 35.25 0 " clip-rule="nonzero"/></clipPath><clipPath id="eaa15deb6b"><rect x="0" width="750" y="0" height="750"/></clipPath><clipPath id="d5fc376bff"><path d="M 313 469 L 367 469 L 367 533.523438 L 313 533.523438 Z M 313 469 " clip-rule="nonzero"/></clipPath></defs><g clip-path="url(#454685e838)"><g transform="matrix(1, 0, 0, 1, 0, -0.000000000000042435)"><g clip-path="url(#eaa15deb6b)"><g clip-path="url(#7583074d38)"><g clip-path="url(#3221b13220)"><rect x="-165" width="1080" fill="#343434" height="1079.999992" y="-164.999999" fill-opacity="1"/></g></g></g></g></g><path fill="#ffffff" d="M 438.046875 501.6875 L 372.300781 460.171875 C 372.15625 460.0625 372.035156 459.917969 371.890625 459.808594 C 364.886719 454.351562 356.445312 451.738281 347.710938 452.792969 C 347.191406 452.851562 346.707031 452.972656 346.210938 453.058594 C 345.519531 443.886719 341.347656 435.007812 333.882812 428.925781 C 327.023438 423.3125 318.433594 420.832031 309.703125 421.910156 C 309.398438 421.957031 309.109375 422.03125 308.804688 422.078125 C 308.417969 412.484375 304.171875 403.097656 296.394531 396.746094 C 289.523438 391.132812 280.949219 388.65625 272.214844 389.742188 C 263.371094 390.855469 255.519531 395.464844 250.136719 402.757812 L 246.691406 407.441406 C 245.832031 408.613281 244.050781 408.445312 243.386719 407.152344 C 241.332031 403.171875 238.488281 399.566406 234.871094 396.625 C 228 391.011719 219.398438 388.523438 210.691406 389.609375 C 201.847656 390.722656 194.007812 395.34375 188.613281 402.636719 L 177.300781 417.917969 L 174.554688 418.304688 C 167.347656 412.789062 159.929688 407.199219 151.28125 403.402344 C 149.890625 402.796875 149.140625 401.273438 149.503906 399.808594 L 184.464844 256.4375 C 184.65625 255.625 185.164062 254.9375 185.878906 254.5 C 186.59375 254.066406 187.441406 253.945312 188.25 254.136719 C 203.117188 257.78125 220.984375 259.835938 239.625 259.835938 C 266.359375 259.835938 294.640625 255.613281 317.699219 245.753906 C 341.445312 235.605469 354.714844 230.550781 368.117188 229.824219 C 370.183594 229.714844 371.007812 232.425781 369.21875 233.464844 C 348.300781 245.539062 325.367188 262.824219 316.960938 281.136719 C 316.921875 281.210938 316.886719 281.308594 316.839844 281.390625 C 316.839844 281.40625 316.828125 281.441406 316.800781 281.453125 C 316.765625 281.527344 316.742188 281.621094 316.707031 281.71875 C 316.644531 281.863281 316.585938 281.984375 316.535156 282.144531 L 296.054688 340.824219 C 294.132812 346.339844 294.507812 352.496094 297.121094 357.710938 C 299.660156 362.839844 304.015625 366.613281 309.386719 368.332031 C 321.300781 372.140625 344.164062 374.925781 363.339844 350.527344 C 363.410156 350.417969 363.496094 350.320312 363.570312 350.210938 C 371.890625 338.621094 377.914062 328.59375 381.519531 322.605469 C 382.015625 321.773438 382.488281 320.984375 382.910156 320.296875 C 383.238281 319.761719 383.792969 319.425781 384.410156 319.363281 L 406.148438 317.527344 C 406.886719 317.464844 407.625 317.671875 408.289062 318.15625 L 531.398438 406.050781 L 536.648438 409.800781 C 556.679688 424.714844 532.039062 452.914062 511.898438 437.671875 C 510.242188 436.507812 503.175781 431.609375 501.386719 430.339844 C 472.875 410.5 429.605469 380.285156 429 379.871094 C 425.082031 377.1875 419.746094 378.105469 417.035156 382 C 414.3125 385.898438 415.234375 391.316406 419.164062 393.964844 C 419.746094 394.351562 461.359375 423.433594 489.894531 443.285156 C 491.699219 444.554688 493.4375 445.761719 495.132812 446.9375 C 509.578125 457.835938 490.667969 483.324219 473.308594 471.53125 L 468.097656 467.863281 L 400.125 420.046875 C 396.242188 417.3125 390.894531 418.265625 388.160156 422.136719 C 385.425781 426.007812 386.359375 431.378906 390.242188 434.101562 L 456.628906 480.820312 C 470.925781 490.980469 454.28125 511.992188 438.097656 501.675781 Z M 438.046875 501.6875 " fill-opacity="1" fill-rule="nonzero"/><path fill="#ffffff" d="M 407.710938 519.636719 C 409.898438 516.625 410.746094 512.996094 410.09375 509.390625 C 409.414062 505.691406 407.261719 502.484375 403.996094 500.34375 L 382.402344 486.140625 C 382.476562 493.160156 380.394531 500.222656 376.003906 506.175781 L 371.007812 512.9375 L 388.765625 524.609375 C 395.347656 527.378906 403.511719 525.398438 407.722656 519.636719 Z M 407.710938 519.636719 " fill-opacity="1" fill-rule="nonzero"/><path fill="#ffffff" d="M 633.921875 219.089844 L 674.363281 386.882812 C 674.714844 388.339844 673.820312 389.800781 672.363281 390.152344 L 629.816406 400.40625 C 624.570312 401.667969 619.285156 398.4375 618.023438 393.195312 L 580.898438 239.148438 C 579.632812 233.902344 582.863281 228.621094 588.109375 227.355469 L 630.65625 217.101562 C 632.117188 216.75 633.574219 217.644531 633.925781 219.101562 Z M 633.921875 219.089844 " fill-opacity="1" fill-rule="nonzero"/><path fill="#ffffff" d="M 223.644531 409.835938 C 220.933594 407.621094 217.679688 406.460938 214.292969 406.460938 C 213.691406 406.460938 213.074219 406.496094 212.457031 406.582031 C 208.332031 407.101562 204.640625 409.292969 202.066406 412.761719 L 181.707031 440.296875 C 176.308594 447.589844 177.582031 458.527344 184.488281 464.175781 C 187.679688 466.789062 191.648438 467.949219 195.664062 467.441406 C 199.789062 466.921875 203.480469 464.730469 206.054688 461.257812 L 226.414062 433.726562 C 231.808594 426.433594 230.539062 415.496094 223.632812 409.847656 Z M 223.644531 409.835938 " fill-opacity="1" fill-rule="nonzero"/><path fill="#ffffff" d="M 478.414062 239.9375 C 452.757812 234.601562 428.539062 229.558594 409.390625 233.464844 C 397.320312 235.933594 343.585938 263.453125 332.226562 288.167969 L 311.902344 346.402344 C 311.347656 347.996094 311.792969 349.316406 312.121094 349.957031 C 312.398438 350.5 313.039062 351.480469 314.261719 351.878906 C 327.835938 356.234375 339.628906 352.230469 349.34375 339.953125 C 357.207031 328.980469 362.964844 319.402344 366.410156 313.667969 C 367.800781 311.34375 368.820312 309.664062 369.570312 308.550781 C 371.964844 304.992188 375.761719 302.742188 379.984375 302.390625 L 404.308594 300.324219 C 409.125 299.914062 413.964844 301.253906 417.917969 304.109375 L 546.570312 395.972656 C 546.738281 396.09375 546.90625 396.226562 547.078125 396.359375 C 550.753906 399.421875 553.609375 402.675781 555.847656 405.84375 C 556.960938 407.417969 558.738281 408.398438 560.660156 408.480469 C 575.175781 409.160156 583.511719 405.105469 596.175781 398.9375 C 597.179688 398.453125 598.222656 397.945312 599.296875 397.425781 C 600.628906 396.785156 601.320312 395.308594 600.96875 393.867188 L 565.453125 248.199219 C 565.039062 246.53125 563.359375 245.5 561.675781 245.902344 C 536.40625 252.023438 507 245.914062 478.414062 239.960938 Z M 478.414062 239.9375 " fill-opacity="1" fill-rule="nonzero"/><path fill="#ffffff" d="M 326.660156 464.03125 C 330.542969 456.84375 328.960938 447.289062 322.644531 442.132812 C 319.933594 439.921875 316.679688 438.757812 313.304688 438.757812 C 312.703125 438.757812 312.085938 438.796875 311.46875 438.878906 C 307.34375 439.402344 303.652344 441.589844 301.078125 445.0625 L 268.667969 488.886719 C 263.273438 496.183594 264.542969 507.117188 271.453125 512.765625 C 274.644531 515.378906 278.613281 516.53125 282.628906 516.035156 C 286.753906 515.511719 290.445312 513.324219 293.019531 509.851562 L 300.808594 499.328125 C 301.5 498.105469 302.226562 496.921875 303.074219 495.773438 L 325.28125 465.734375 C 325.71875 465.140625 326.203125 464.597656 326.671875 464.042969 Z M 326.660156 464.03125 " fill-opacity="1" fill-rule="nonzero"/><path fill="#ffffff" d="M 285.167969 409.96875 C 282.460938 407.753906 279.207031 406.59375 275.820312 406.59375 C 275.214844 406.59375 274.597656 406.628906 273.980469 406.714844 C 269.855469 407.234375 266.164062 409.425781 263.589844 412.898438 L 220.304688 471.433594 C 214.910156 478.726562 216.179688 489.664062 223.089844 495.3125 C 226.28125 497.925781 230.25 499.085938 234.265625 498.578125 C 238.390625 498.058594 242.082031 495.867188 244.65625 492.398438 L 287.941406 433.859375 C 293.335938 426.566406 292.066406 415.628906 285.15625 409.980469 Z M 285.167969 409.96875 " fill-opacity="1" fill-rule="nonzero"/><g clip-path="url(#d5fc376bff)"><path fill="#ffffff" d="M 360.664062 473.015625 C 357.957031 470.804688 354.703125 469.640625 351.316406 469.640625 C 350.710938 469.640625 350.09375 469.679688 349.476562 469.75 C 346.078125 470.175781 342.992188 471.757812 340.574219 474.226562 C 340.148438 474.90625 339.726562 475.570312 339.242188 476.222656 L 315.316406 508.582031 C 311.855469 515.683594 313.535156 524.839844 319.65625 529.847656 C 322.851562 532.460938 326.820312 533.609375 330.835938 533.113281 C 334.960938 532.59375 338.648438 530.40625 341.214844 526.933594 L 363.421875 496.898438 C 368.820312 489.601562 367.546875 478.667969 360.640625 473.015625 Z M 360.664062 473.015625 " fill-opacity="1" fill-rule="nonzero"/></g><path fill="#ffffff" d="M 169.136719 244.433594 L 132.011719 398.476562 C 130.746094 403.722656 125.464844 406.953125 120.21875 405.691406 L 77.671875 395.4375 C 76.214844 395.085938 75.320312 393.625 75.671875 392.167969 L 116.109375 224.375 C 116.460938 222.917969 117.921875 222.023438 119.378906 222.375 L 161.925781 232.628906 C 167.171875 233.894531 170.402344 239.175781 169.140625 244.421875 Z M 169.136719 244.433594 " fill-opacity="1" fill-rule="nonzero"/></svg>